<svg width="234" height="200" viewBox="0 0 234 200" fill="none" xmlns="http://www.w3.org/2000/svg">
<g id="Frame 1000001502">
<g id="vuesax/bold/timer">
<g id="timer">
<path id="Vector" d="M117.003 51.0029C85.1365 51.0029 59.2031 76.9363 59.2031 108.803C59.2031 140.67 85.1365 166.67 117.003 166.67C148.87 166.67 174.803 140.736 174.803 108.87C174.803 77.0029 148.87 51.0029 117.003 51.0029ZM122.003 106.67C122.003 109.403 119.736 111.67 117.003 111.67C114.27 111.67 112.003 109.403 112.003 106.67V73.3363C112.003 70.6029 114.27 68.3363 117.003 68.3363C119.736 68.3363 122.003 70.6029 122.003 73.3363V106.67Z" fill="#4A4E5A"/>
<path id="Vector_2" d="M136.271 42.9997H97.7375C95.0708 42.9997 92.9375 40.8663 92.9375 38.1997C92.9375 35.533 95.0708 33.333 97.7375 33.333H136.271C138.938 33.333 141.071 35.4663 141.071 38.133C141.071 40.7997 138.938 42.9997 136.271 42.9997Z" fill="#4A4E5A"/>
</g>
</g>
</g>
</svg>
