<svg width="160" height="160" viewBox="0 0 160 160" fill="none" xmlns="http://www.w3.org/2000/svg">
<g id="Frame" clip-path="url(#clip0_1_1511)">
<g id="Group">
<path id="Vector" d="M99.7505 138.83V105.192C96.4652 105.146 93.2886 104.432 90.3755 103.111V131.49L56.3952 108.836L53.5245 112.939C52.68 114.138 51.7405 115.268 50.7148 116.317L91.683 143.629L101.205 157.912C102.108 159.267 103.594 160 105.109 160C106.003 160 106.906 159.745 107.705 159.212C109.859 157.776 110.441 154.866 109.005 152.712L99.7505 138.83Z" fill="#4A4E5A"/>
<path id="Vector_2" d="M104.771 2.62969V14.7294C104.771 17.3181 102.672 19.4169 100.083 19.4169C97.4947 19.4169 95.3959 17.3181 95.3959 14.7294V0.716563C91.9581 0.24028 88.4916 0.000862035 85.0209 0L84.6875 0V14.7294C84.6875 17.3181 82.5888 19.4169 80 19.4169C77.4112 19.4169 75.3125 17.3181 75.3125 14.7294V0H64.9325C64.8228 0 64.7137 0.0034375 64.6044 0.0040625V14.7291C64.6044 17.3178 62.5056 19.4166 59.9169 19.4166C57.3281 19.4166 55.2294 17.3178 55.2294 14.7291V0.723438C23.9772 5.41469 0 32.4094 0 64.9325V85.6584C0 93.1175 3.70563 100.041 9.9125 104.179L21.7816 112.092C23.0656 112.948 27.9203 116.014 34.735 114.731C36.6206 114.376 41.9753 113.072 45.8428 107.563L54.8019 94.7603C58.7287 89.1513 64.8931 85.5919 71.7159 84.9953C78.5331 84.3975 85.2231 86.8312 90.0659 91.6737L90.0909 91.6988C92.7634 94.3597 96.3106 95.8247 100.083 95.8247C103.867 95.8247 107.423 94.3513 110.098 91.6763L120.539 81.2356C121.035 80.7366 121.626 80.341 122.276 80.0717C122.926 79.8024 123.623 79.6647 124.327 79.6666H155.312C157.901 79.6666 160 77.5678 160 74.9791C160 40.3559 136.602 11.285 104.771 2.62969Z" fill="#4A4E5A"/>
</g>
</g>
<defs>
<clipPath id="clip0_1_1511">
<rect width="160" height="160" fill="white"/>
</clipPath>
</defs>
</svg>
