<svg width="134" height="28" viewBox="0 0 134 28" fill="none" xmlns="http://www.w3.org/2000/svg">
<g id="Group">
<path id="Vector" d="M24.4293 10.2433C23.762 13.1736 23.0657 16.075 22.3984 18.9763C22.1953 19.7887 21.7021 20.3399 20.8317 20.3399C17.9593 20.369 15.087 20.3399 12.2147 20.3399C12.1276 20.3399 12.0406 20.2819 11.8085 20.1949C12.1276 18.8022 12.4468 17.3516 12.7659 15.9589C13.2011 14.044 13.6653 12.1581 14.0715 10.2433H4.0909C3.53964 12.6514 2.95937 15.0595 2.40812 17.4676C1.62475 20.8912 0.841391 24.3148 0 27.9705H1.30561C8.09476 27.9705 14.8549 27.9705 21.6441 27.9705C22.1663 27.9705 22.6885 27.9415 23.2108 27.9125C27.3307 27.5933 30.9864 24.6339 32.0019 20.6301C32.8723 17.1775 33.6846 13.6959 34.497 10.2433H24.4293ZM31.1315 0.349657C30.232 0.0885358 29.2456 0.0595223 28.3172 0.0595223C21.47 0.0305088 14.6518 0.0595223 7.80463 0.00149536C6.6731 0.00149536 6.32494 0.378671 6.09283 1.39414C5.62861 3.48311 5.1644 5.54307 4.67117 7.60303H35.0483C35.8316 4.12141 34.2649 1.22006 31.1315 0.349657Z" fill="white"/>
<path id="Vector_2" d="M67.4272 4.23834C66.6728 1.5691 64.4678 0.0603942 61.0732 0.0313808C56.286 0.0023673 51.4698 0.0023673 46.6535 0.0313808C42.1274 0.0603942 38.2106 3.25188 37.0791 7.6039H67.4852C67.6883 6.50139 67.7753 5.36986 67.4272 4.23834ZM34.2068 20.0507C33.5975 22.6329 33.0462 25.2151 32.4079 27.9714C35.6864 27.9714 38.7909 28.0004 41.8953 27.9423C42.0984 27.9423 42.4466 27.5362 42.5046 27.275C43.2009 24.4317 43.8682 21.6174 44.4775 18.7741C44.6226 18.0778 44.8547 17.7876 45.6381 17.7876C48.4524 17.8457 51.2667 17.8166 54.081 17.8166C54.3711 17.8166 54.6903 17.9037 55.0384 17.9327C54.2551 21.3273 53.5007 24.6058 52.7754 27.8553C53.0075 27.9423 53.0945 27.9714 53.1816 27.9714C56.17 27.9714 59.1293 27.9714 62.1177 28.0004C62.669 28.0004 62.814 27.7683 62.9301 27.275C64.2357 21.6174 65.5703 15.9308 66.8759 10.2731H36.4698C35.7445 13.4936 34.9611 16.7722 34.2068 20.0507Z" fill="white"/>
<path id="Vector_3" d="M111.905 7.60313H101.867C102.36 5.54318 102.824 3.48322 103.317 1.42326C103.723 -0.259517 103.404 0.0596314 105.087 0.030618C107.495 0.00160449 109.932 0.030618 112.369 0.030618C112.747 0.030618 113.124 0.0886449 113.617 0.117658C113.008 2.67084 112.457 5.13699 111.905 7.60313Z" fill="white"/>
<path id="Vector_4" d="M133.926 0.117721C133.665 1.3653 133.404 2.49683 133.143 3.62835C131.315 11.491 129.487 19.3537 127.688 27.2163C127.572 27.6805 127.456 27.9707 126.876 27.9707C123.916 27.9416 120.986 27.9707 118.027 27.9416C117.882 27.9416 117.737 27.8546 117.504 27.7966C118.259 24.489 119.013 21.2395 119.797 17.874C119.419 17.8159 119.129 17.7579 118.839 17.7579C116.025 17.7579 113.21 17.7869 110.396 17.7289C109.642 17.7289 109.41 17.99 109.236 18.7154C108.626 21.5587 107.959 24.402 107.263 27.2163C107.205 27.4774 106.857 27.8836 106.653 27.9126C103.549 27.9707 100.445 27.9416 97.166 27.9416C97.4852 26.491 97.7753 25.1563 98.0654 23.8507C99.1099 19.2956 100.154 14.7695 101.199 10.2144H118.897C119.506 10.2144 120.087 10.2144 120.667 10.2144C121.334 10.2144 121.595 9.9823 121.711 9.37302C122.321 6.61674 122.988 3.88947 123.568 1.16221C123.742 0.320816 124.062 -0.0273462 124.99 0.00166731C127.543 0.0596943 130.096 0.0306808 132.65 0.0306808C133.085 0.0306808 133.433 0.0887077 133.926 0.117721Z" fill="white"/>
<path id="Vector_5" d="M97.6302 15.6111C97.6012 18.9766 96.9339 22.2842 94.4097 24.8374C92.4078 26.8683 90.0287 27.9708 87.1273 27.9708C79.932 27.9708 72.7366 27.9708 65.5123 27.9708C65.3092 27.9708 65.1351 27.9128 64.787 27.8838C65.3382 25.5047 65.8605 23.2416 66.3537 20.9786C66.4987 20.2822 67.021 20.3693 67.4852 20.3693C73.2879 20.3693 79.0906 20.3693 84.8643 20.3693C85.2705 20.3693 85.7347 20.3693 86.1119 20.2242C86.8372 19.9631 87.2144 19.3828 87.0983 18.5995C86.9823 17.8451 86.402 17.7581 85.7637 17.7581C82.3401 17.7581 78.8875 17.7871 75.4639 17.7581C73.8682 17.7581 72.2434 17.671 70.8798 16.5975C69.11 15.2049 68.4136 13.377 68.6748 11.143C68.7328 10.5337 68.9939 10.2726 69.4871 10.2146C69.5742 10.2146 69.6902 10.1855 69.8063 10.1855C74.1873 10.2146 78.5393 10.1855 82.9204 10.2146C84.371 10.2146 90.754 10.3016 92.4948 10.3306C95.048 10.4177 97.6592 12.5647 97.6302 15.6111Z" fill="white"/>
<path id="Vector_6" d="M100.271 0.0303802C100.125 0.842758 100.009 1.51007 99.8644 2.14836C99.5162 3.65706 99.11 5.13675 98.8199 6.64545C98.6748 7.42882 98.3267 7.63191 97.6013 7.63191H97.5723C91.4505 7.6029 69.5453 7.6029 69.5453 7.6029C69.8064 5.97814 70.5317 4.78859 71.4312 3.7441C73.5491 1.27796 76.2184 0.0303802 79.5259 0.0303802C85.9959 0.0593937 92.4659 0.0303802 98.965 0.0303802H100.271Z" fill="white"/>
</g>
</svg>
