<svg width="160" height="160" viewBox="0 0 160 160" fill="none" xmlns="http://www.w3.org/2000/svg">
<g id="vuesax/bold/people">
<g id="people">
<path id="Vector" d="M116.867 51.7999C116.4 51.7333 115.933 51.7333 115.467 51.7999C105.133 51.4666 96.9333 42.9999 96.9333 32.5999C96.9333 21.9999 105.533 13.3333 116.2 13.3333C126.8 13.3333 135.467 21.9333 135.467 32.5999C135.4 42.9999 127.2 51.4666 116.867 51.7999Z" fill="#4A4E5A"/>
<path id="Vector_2" d="M138.6 98C131.133 103 120.667 104.867 111 103.6C113.533 98.1333 114.867 92.0667 114.933 85.6667C114.933 79 113.467 72.6667 110.667 67.1333C120.533 65.8 131 67.6667 138.533 72.6667C149.067 79.6 149.067 91 138.6 98Z" fill="#4A4E5A"/>
<path id="Vector_3" d="M42.9333 51.7999C43.4 51.7333 43.8667 51.7333 44.3333 51.7999C54.6667 51.4666 62.8667 42.9999 62.8667 32.5999C62.8667 21.9333 54.2667 13.3333 43.6 13.3333C33 13.3333 24.4 21.9333 24.4 32.5999C24.4 42.9999 32.6 51.4666 42.9333 51.7999Z" fill="#4A4E5A"/>
<path id="Vector_4" d="M43.6667 85.6667C43.6667 92.1334 45.0667 98.2667 47.6 103.8C38.2 104.8 28.4 102.8 21.2 98.0667C10.6667 91.0667 10.6667 79.6667 21.2 72.6667C28.3333 67.8667 38.4 65.9334 47.8667 67C45.1333 72.6 43.6667 78.9334 43.6667 85.6667Z" fill="#4A4E5A"/>
<path id="Vector_5" d="M80.8 105.8C80.2667 105.733 79.6667 105.733 79.0667 105.8C66.8 105.4 57 95.3333 57 82.9333C57.0667 70.2667 67.2667 60 80 60C92.6667 60 102.933 70.2667 102.933 82.9333C102.867 95.3333 93.1333 105.4 80.8 105.8Z" fill="#4A4E5A"/>
<path id="Vector_6" d="M59.1333 119.6C49.0667 126.333 49.0667 137.4 59.1333 144.067C70.6 151.733 89.4 151.733 100.867 144.067C110.933 137.333 110.933 126.267 100.867 119.6C89.4667 111.933 70.6667 111.933 59.1333 119.6Z" fill="#4A4E5A"/>
</g>
</g>
</svg>
