<svg width="160" height="160" viewBox="0 0 160 160" fill="none" xmlns="http://www.w3.org/2000/svg">
<g id="vuesax/bold/ranking">
<g id="ranking">
<path id="Vector" d="M88.6666 54.0667L97.4666 71.6667C98.6666 74.0667 101.867 76.4667 104.533 76.8667L120.467 79.5334C130.667 81.2667 133.067 88.6001 125.733 95.9334L113.333 108.4C111.267 110.467 110.067 114.533 110.733 117.467L114.267 132.867C117.067 145 110.6 149.733 99.8666 143.4L84.9333 134.533C82.2 132.933 77.8 132.933 75.0667 134.533L60.0667 143.333C49.3333 149.667 42.8667 144.933 45.6667 132.8L49.2 117.4C49.8667 114.533 48.6666 110.467 46.6 108.333L34.2667 96.0001C26.9333 88.6667 29.3333 81.2667 39.5333 79.6001L55.4666 76.9334C58.1333 76.4667 61.3333 74.1334 62.5333 71.7334L71.3333 54.1334C76.0666 44.5334 83.9333 44.5334 88.6666 54.0667Z" fill="#4A4E5A"/>
<path id="Vector_2" d="M40 64.9999C37.2667 64.9999 35 62.7333 35 59.9999V13.3333C35 10.5999 37.2667 8.33325 40 8.33325C42.7333 8.33325 45 10.5999 45 13.3333V59.9999C45 62.7333 42.7333 64.9999 40 64.9999Z" fill="#4A4E5A"/>
<path id="Vector_3" d="M120 64.9999C117.267 64.9999 115 62.7333 115 59.9999V13.3333C115 10.5999 117.267 8.33325 120 8.33325C122.733 8.33325 125 10.5999 125 13.3333V59.9999C125 62.7333 122.733 64.9999 120 64.9999Z" fill="#4A4E5A"/>
<path id="Vector_4" d="M80 31.6666C77.2667 31.6666 75 29.3999 75 26.6666V13.3333C75 10.5999 77.2667 8.33325 80 8.33325C82.7333 8.33325 85 10.5999 85 13.3333V26.6666C85 29.3999 82.7333 31.6666 80 31.6666Z" fill="#4A4E5A"/>
</g>
</g>
</svg>
